<svg width="381" height="243" viewBox="0 0 381 243" fill="none" xmlns="http://www.w3.org/2000/svg">
<g clip-path="url(#clip0_738_3938)">
<rect x="0.65332" width="380" height="800" rx="50" fill="white"/>
<path d="M45.4813 54.0002H57.6533V56.0002H45.4813L50.8453 61.3642L49.4313 62.7782L41.6533 55.0002L49.4313 47.2222L50.8453 48.6362L45.4813 54.0002Z" fill="#1A191E"/>
<path d="M154.673 62.24C153.647 62.24 152.747 62.06 151.973 61.7C151.213 61.3267 150.62 60.8067 150.193 60.14C149.767 59.4733 149.547 58.6933 149.533 57.8H151.633C151.647 58.3067 151.767 58.7733 151.993 59.2C152.233 59.6133 152.573 59.9467 153.013 60.2C153.467 60.44 154.02 60.56 154.673 60.56C155.233 60.56 155.713 60.4667 156.113 60.28C156.527 60.0933 156.84 59.84 157.053 59.52C157.267 59.1867 157.373 58.8067 157.373 58.38C157.373 57.8733 157.26 57.4667 157.033 57.16C156.807 56.84 156.5 56.58 156.113 56.38C155.727 56.1667 155.28 55.98 154.773 55.82C154.28 55.66 153.76 55.4867 153.213 55.3C152.12 54.9267 151.307 54.46 150.773 53.9C150.24 53.3267 149.973 52.58 149.973 51.66C149.973 50.8733 150.153 50.1933 150.513 49.62C150.887 49.0333 151.413 48.58 152.093 48.26C152.773 47.9267 153.567 47.76 154.473 47.76C155.38 47.76 156.173 47.9267 156.853 48.26C157.533 48.5933 158.067 49.0533 158.453 49.64C158.84 50.2267 159.04 50.9133 159.053 51.7H156.933C156.92 51.34 156.82 50.9867 156.633 50.64C156.447 50.2933 156.167 50.0133 155.793 49.8C155.42 49.5733 154.96 49.46 154.413 49.46C153.96 49.4467 153.553 49.52 153.193 49.68C152.833 49.84 152.553 50.0733 152.353 50.38C152.153 50.6867 152.053 51.0533 152.053 51.48C152.053 51.9067 152.14 52.2533 152.313 52.52C152.5 52.7733 152.767 52.9933 153.113 53.18C153.46 53.3667 153.86 53.54 154.313 53.7C154.78 53.8467 155.293 54.0133 155.853 54.2C156.547 54.4267 157.16 54.7067 157.693 55.04C158.24 55.36 158.673 55.78 158.993 56.3C159.313 56.8067 159.473 57.46 159.473 58.26C159.473 58.9533 159.287 59.6 158.913 60.2C158.553 60.8 158.02 61.2933 157.313 61.68C156.62 62.0533 155.74 62.24 154.673 62.24ZM165.252 62C164.612 62 164.059 61.9 163.592 61.7C163.125 61.5 162.765 61.1667 162.512 60.7C162.259 60.2333 162.132 59.6 162.132 58.8V53.7H160.412V52.02H162.132L162.392 49.52H164.132V52.02H166.972V53.7H164.132V58.82C164.132 59.3933 164.252 59.7867 164.492 60C164.732 60.2 165.145 60.3 165.732 60.3H166.872V62H165.252ZM171.899 62.24C171.073 62.24 170.386 62.1 169.839 61.82C169.293 61.54 168.886 61.1667 168.619 60.7C168.353 60.2333 168.219 59.7267 168.219 59.18C168.219 58.5267 168.386 57.9667 168.719 57.5C169.066 57.0333 169.559 56.6733 170.199 56.42C170.839 56.1667 171.613 56.04 172.519 56.04H175.139C175.139 55.4533 175.046 54.9733 174.859 54.6C174.686 54.2133 174.426 53.9267 174.079 53.74C173.746 53.54 173.326 53.44 172.819 53.44C172.219 53.44 171.699 53.5867 171.259 53.88C170.819 54.1733 170.546 54.6067 170.439 55.18H168.439C168.519 54.46 168.759 53.8467 169.159 53.34C169.573 52.8333 170.099 52.4467 170.739 52.18C171.393 51.9133 172.086 51.78 172.819 51.78C173.753 51.78 174.539 51.9467 175.179 52.28C175.819 52.6133 176.306 53.0867 176.639 53.7C176.973 54.3 177.139 55.0133 177.139 55.84V62H175.399L175.239 60.3C175.106 60.5667 174.933 60.82 174.719 61.06C174.519 61.3 174.279 61.5067 173.999 61.68C173.733 61.8533 173.419 61.9867 173.059 62.08C172.713 62.1867 172.326 62.24 171.899 62.24ZM172.279 60.62C172.706 60.62 173.093 60.5333 173.439 60.36C173.786 60.1867 174.079 59.9533 174.319 59.66C174.573 59.3533 174.759 59.0133 174.879 58.64C175.013 58.2667 175.086 57.88 175.099 57.48V57.44H172.719C172.146 57.44 171.679 57.5133 171.319 57.66C170.959 57.7933 170.699 57.98 170.539 58.22C170.393 58.46 170.319 58.74 170.319 59.06C170.319 59.38 170.393 59.66 170.539 59.9C170.699 60.1267 170.926 60.3067 171.219 60.44C171.513 60.56 171.866 60.62 172.279 60.62ZM182.978 62C182.338 62 181.785 61.9 181.318 61.7C180.851 61.5 180.491 61.1667 180.238 60.7C179.985 60.2333 179.858 59.6 179.858 58.8V53.7H178.138V52.02H179.858L180.118 49.52H181.858V52.02H184.698V53.7H181.858V58.82C181.858 59.3933 181.978 59.7867 182.218 60C182.458 60.2 182.871 60.3 183.458 60.3H184.598V62H182.978ZM186.425 62V52.02H188.425V62H186.425ZM187.425 50.08C187.052 50.08 186.739 49.96 186.485 49.72C186.232 49.48 186.105 49.1733 186.105 48.8C186.105 48.44 186.232 48.1467 186.485 47.92C186.739 47.68 187.052 47.56 187.425 47.56C187.799 47.56 188.112 47.68 188.365 47.92C188.619 48.1467 188.745 48.44 188.745 48.8C188.745 49.1733 188.619 49.48 188.365 49.72C188.112 49.96 187.799 50.08 187.425 50.08ZM194.585 62.24C193.759 62.24 193.019 62.1 192.365 61.82C191.725 61.54 191.212 61.1467 190.825 60.64C190.452 60.1333 190.225 59.5467 190.145 58.88H192.165C192.245 59.1867 192.385 59.4733 192.585 59.74C192.785 60.0067 193.052 60.22 193.385 60.38C193.719 60.54 194.119 60.62 194.585 60.62C195.025 60.62 195.385 60.56 195.665 60.44C195.945 60.3067 196.152 60.1333 196.285 59.92C196.419 59.7067 196.485 59.4733 196.485 59.22C196.485 58.86 196.392 58.5867 196.205 58.4C196.032 58.2133 195.765 58.0667 195.405 57.96C195.059 57.84 194.639 57.7267 194.145 57.62C193.719 57.54 193.292 57.4333 192.865 57.3C192.439 57.1667 192.052 56.9933 191.705 56.78C191.359 56.5667 191.079 56.3 190.865 55.98C190.652 55.66 190.545 55.2667 190.545 54.8C190.545 54.2133 190.699 53.6933 191.005 53.24C191.312 52.7867 191.745 52.4333 192.305 52.18C192.865 51.9133 193.532 51.78 194.305 51.78C195.412 51.78 196.305 52.0467 196.985 52.58C197.679 53.1 198.079 53.8533 198.185 54.84H196.265C196.199 54.3867 195.992 54.0333 195.645 53.78C195.312 53.5267 194.865 53.4 194.305 53.4C193.732 53.4 193.292 53.5133 192.985 53.74C192.692 53.9667 192.545 54.2667 192.545 54.64C192.545 54.88 192.632 55.0933 192.805 55.28C192.992 55.4533 193.252 55.6067 193.585 55.74C193.932 55.86 194.339 55.9667 194.805 56.06C195.485 56.2067 196.099 56.38 196.645 56.58C197.205 56.7667 197.659 57.0533 198.005 57.44C198.352 57.8133 198.525 58.36 198.525 59.08C198.539 59.7067 198.379 60.26 198.045 60.74C197.725 61.2067 197.272 61.5733 196.685 61.84C196.099 62.1067 195.399 62.24 194.585 62.24ZM203.99 62C203.35 62 202.797 61.9 202.33 61.7C201.864 61.5 201.504 61.1667 201.25 60.7C200.997 60.2333 200.87 59.6 200.87 58.8V53.7H199.15V52.02H200.87L201.13 49.52H202.87V52.02H205.71V53.7H202.87V58.82C202.87 59.3933 202.99 59.7867 203.23 60C203.47 60.2 203.884 60.3 204.47 60.3H205.61V62H203.99ZM207.438 62V52.02H209.438V62H207.438ZM208.438 50.08C208.064 50.08 207.751 49.96 207.498 49.72C207.244 49.48 207.118 49.1733 207.118 48.8C207.118 48.44 207.244 48.1467 207.498 47.92C207.751 47.68 208.064 47.56 208.438 47.56C208.811 47.56 209.124 47.68 209.378 47.92C209.631 48.1467 209.758 48.44 209.758 48.8C209.758 49.1733 209.631 49.48 209.378 49.72C209.124 49.96 208.811 50.08 208.438 50.08ZM216.358 62.24C215.384 62.24 214.518 62.02 213.758 61.58C212.998 61.14 212.398 60.5267 211.958 59.74C211.531 58.9533 211.318 58.0467 211.318 57.02C211.318 55.98 211.531 55.0667 211.958 54.28C212.398 53.4933 212.998 52.88 213.758 52.44C214.518 52 215.384 51.78 216.358 51.78C217.584 51.78 218.604 52.1 219.418 52.74C220.244 53.3667 220.771 54.22 220.998 55.3H218.918C218.784 54.7267 218.478 54.2867 217.998 53.98C217.531 53.66 216.978 53.5 216.338 53.5C215.804 53.5 215.311 53.6333 214.858 53.9C214.404 54.1667 214.038 54.56 213.758 55.08C213.491 55.6 213.358 56.24 213.358 57C213.358 57.5733 213.438 58.08 213.598 58.52C213.758 58.96 213.971 59.3333 214.238 59.64C214.518 59.9333 214.838 60.16 215.198 60.32C215.558 60.4667 215.938 60.54 216.338 60.54C216.778 60.54 217.171 60.4733 217.518 60.34C217.864 60.1933 218.158 59.9867 218.398 59.72C218.651 59.44 218.824 59.1067 218.918 58.72H220.998C220.771 59.7733 220.244 60.6267 219.418 61.28C218.591 61.92 217.571 62.24 216.358 62.24ZM226.638 62.24C225.812 62.24 225.072 62.1 224.418 61.82C223.778 61.54 223.265 61.1467 222.878 60.64C222.505 60.1333 222.278 59.5467 222.198 58.88H224.218C224.298 59.1867 224.438 59.4733 224.638 59.74C224.838 60.0067 225.105 60.22 225.438 60.38C225.772 60.54 226.172 60.62 226.638 60.62C227.078 60.62 227.438 60.56 227.718 60.44C227.998 60.3067 228.205 60.1333 228.338 59.92C228.472 59.7067 228.538 59.4733 228.538 59.22C228.538 58.86 228.445 58.5867 228.258 58.4C228.085 58.2133 227.818 58.0667 227.458 57.96C227.112 57.84 226.692 57.7267 226.198 57.62C225.772 57.54 225.345 57.4333 224.918 57.3C224.492 57.1667 224.105 56.9933 223.758 56.78C223.412 56.5667 223.132 56.3 222.918 55.98C222.705 55.66 222.598 55.2667 222.598 54.8C222.598 54.2133 222.752 53.6933 223.058 53.24C223.365 52.7867 223.798 52.4333 224.358 52.18C224.918 51.9133 225.585 51.78 226.358 51.78C227.465 51.78 228.358 52.0467 229.038 52.58C229.732 53.1 230.132 53.8533 230.238 54.84H228.318C228.252 54.3867 228.045 54.0333 227.698 53.78C227.365 53.5267 226.918 53.4 226.358 53.4C225.785 53.4 225.345 53.5133 225.038 53.74C224.745 53.9667 224.598 54.2667 224.598 54.64C224.598 54.88 224.685 55.0933 224.858 55.28C225.045 55.4533 225.305 55.6067 225.638 55.74C225.985 55.86 226.392 55.9667 226.858 56.06C227.538 56.2067 228.152 56.38 228.698 56.58C229.258 56.7667 229.712 57.0533 230.058 57.44C230.405 57.8133 230.578 58.36 230.578 59.08C230.592 59.7067 230.432 60.26 230.098 60.74C229.778 61.2067 229.325 61.5733 228.738 61.84C228.152 62.1067 227.452 62.24 226.638 62.24Z" fill="#1A191E"/>
<path d="M330.653 65C325.13 65 320.653 60.523 320.653 55C320.653 49.477 325.13 45 330.653 45C336.176 45 340.653 49.477 340.653 55C340.653 60.523 336.176 65 330.653 65ZM330.653 63C332.775 63 334.81 62.1571 336.31 60.6569C337.81 59.1566 338.653 57.1217 338.653 55C338.653 52.8783 337.81 50.8434 336.31 49.3431C334.81 47.8429 332.775 47 330.653 47C328.532 47 326.497 47.8429 324.996 49.3431C323.496 50.8434 322.653 52.8783 322.653 55C322.653 57.1217 323.496 59.1566 324.996 60.6569C326.497 62.1571 328.532 63 330.653 63ZM329.653 58H331.653V60H329.653V58ZM331.653 56.355V57H329.653V55.5C329.653 55.2348 329.759 54.9804 329.946 54.7929C330.134 54.6054 330.388 54.5 330.653 54.5C330.937 54.5 331.216 54.4193 331.456 54.2673C331.696 54.1154 331.888 53.8984 332.009 53.6416C332.131 53.3848 332.177 53.0988 332.142 52.8168C332.107 52.5349 331.993 52.2686 331.813 52.0489C331.633 51.8292 331.394 51.6652 331.125 51.576C330.855 51.4867 330.565 51.4759 330.29 51.5447C330.014 51.6135 329.764 51.7592 329.568 51.9648C329.372 52.1704 329.238 52.4274 329.182 52.706L327.22 52.313C327.342 51.7051 327.623 51.1404 328.034 50.6766C328.446 50.2128 328.973 49.8666 329.562 49.6733C330.151 49.4801 330.781 49.4467 331.387 49.5766C331.993 49.7065 332.554 49.9951 333.012 50.4128C333.47 50.8305 333.809 51.3624 333.994 51.9541C334.18 52.5457 334.204 53.1759 334.066 53.7803C333.928 54.3847 333.632 54.9415 333.208 55.3939C332.784 55.8462 332.247 56.1779 331.653 56.355Z" fill="#1A191E"/>
<rect x="35.6533" y="99" width="147" height="77" rx="10" fill="#F8F8F8"/>
<path d="M85.1922 129V120.273H90.6638V121.406H86.509V124.065H90.3783V125.195H86.509V127.866H90.7149V129H85.1922ZM94.2252 129.145C93.8105 129.145 93.4355 129.068 93.1002 128.915C92.765 128.759 92.4994 128.533 92.3034 128.237C92.1102 127.942 92.0136 127.58 92.0136 127.151C92.0136 126.781 92.0846 126.477 92.2267 126.239C92.3687 126 92.5605 125.811 92.8019 125.672C93.0434 125.533 93.3133 125.428 93.6116 125.357C93.9099 125.286 94.2139 125.232 94.5235 125.195C94.9156 125.149 95.2338 125.112 95.4781 125.084C95.7224 125.053 95.8999 125.003 96.0107 124.935C96.1215 124.866 96.1769 124.756 96.1769 124.602V124.572C96.1769 124.2 96.0718 123.912 95.8616 123.707C95.6542 123.503 95.3445 123.401 94.9326 123.401C94.5036 123.401 94.1656 123.496 93.9184 123.686C93.6741 123.874 93.5051 124.082 93.4113 124.312L92.2139 124.04C92.3559 123.642 92.5633 123.321 92.836 123.077C93.1116 122.83 93.4284 122.651 93.7863 122.54C94.1443 122.426 94.5207 122.369 94.9156 122.369C95.1769 122.369 95.4539 122.401 95.7465 122.463C96.042 122.523 96.3176 122.634 96.5732 122.795C96.8318 122.957 97.0434 123.189 97.2082 123.49C97.373 123.788 97.4553 124.176 97.4553 124.653V129H96.211V128.105H96.1599C96.0775 128.27 95.9539 128.432 95.7892 128.591C95.6244 128.75 95.4127 128.882 95.1542 128.987C94.8957 129.092 94.586 129.145 94.2252 129.145ZM94.5022 128.122C94.8545 128.122 95.1556 128.053 95.4056 127.913C95.6585 127.774 95.8502 127.592 95.9809 127.368C96.1144 127.141 96.1812 126.898 96.1812 126.639V125.795C96.1357 125.841 96.0477 125.884 95.917 125.923C95.7892 125.96 95.6428 125.993 95.4781 126.021C95.3133 126.047 95.1528 126.071 94.9965 126.094C94.8403 126.114 94.7096 126.131 94.6045 126.145C94.3573 126.176 94.1315 126.229 93.9269 126.303C93.7252 126.376 93.5633 126.483 93.4411 126.622C93.3218 126.759 93.2622 126.94 93.2622 127.168C93.2622 127.483 93.3786 127.722 93.6116 127.884C93.8445 128.043 94.1414 128.122 94.5022 128.122ZM99.1524 129V122.455H100.384V123.494H100.452C100.571 123.142 100.782 122.865 101.083 122.663C101.387 122.459 101.731 122.357 102.114 122.357C102.194 122.357 102.287 122.359 102.395 122.365C102.506 122.371 102.593 122.378 102.655 122.386V123.605C102.604 123.591 102.513 123.575 102.383 123.558C102.252 123.538 102.121 123.528 101.991 123.528C101.689 123.528 101.421 123.592 101.185 123.72C100.952 123.845 100.767 124.02 100.631 124.244C100.495 124.466 100.427 124.719 100.427 125.003V129H99.1524ZM105.032 125.114V129H103.758V122.455H104.981V123.52H105.062C105.212 123.173 105.448 122.895 105.769 122.685C106.093 122.474 106.501 122.369 106.992 122.369C107.438 122.369 107.829 122.463 108.164 122.651C108.499 122.835 108.759 123.111 108.944 123.477C109.129 123.844 109.221 124.297 109.221 124.837V129H107.947V124.99C107.947 124.516 107.823 124.145 107.576 123.878C107.329 123.608 106.989 123.473 106.558 123.473C106.262 123.473 105.999 123.537 105.769 123.665C105.542 123.793 105.362 123.98 105.228 124.227C105.097 124.472 105.032 124.767 105.032 125.114ZM110.93 129V122.455H112.204V129H110.93ZM111.573 121.445C111.352 121.445 111.161 121.371 111.002 121.223C110.846 121.072 110.768 120.893 110.768 120.686C110.768 120.476 110.846 120.297 111.002 120.149C111.161 119.999 111.352 119.923 111.573 119.923C111.795 119.923 111.984 119.999 112.14 120.149C112.299 120.297 112.379 120.476 112.379 120.686C112.379 120.893 112.299 121.072 112.14 121.223C111.984 121.371 111.795 121.445 111.573 121.445ZM115.192 125.114V129H113.918V122.455H115.141V123.52H115.222C115.373 123.173 115.608 122.895 115.929 122.685C116.253 122.474 116.661 122.369 117.152 122.369C117.598 122.369 117.989 122.463 118.324 122.651C118.66 122.835 118.919 123.111 119.104 123.477C119.289 123.844 119.381 124.297 119.381 124.837V129H118.107V124.99C118.107 124.516 117.983 124.145 117.736 123.878C117.489 123.608 117.15 123.473 116.718 123.473C116.422 123.473 116.16 123.537 115.929 123.665C115.702 123.793 115.522 123.98 115.388 124.227C115.258 124.472 115.192 124.767 115.192 125.114ZM123.834 131.591C123.314 131.591 122.867 131.523 122.492 131.386C122.12 131.25 121.816 131.07 121.58 130.845C121.344 130.621 121.168 130.375 121.052 130.108L122.147 129.656C122.223 129.781 122.326 129.913 122.454 130.053C122.584 130.195 122.76 130.315 122.982 130.415C123.206 130.514 123.495 130.564 123.847 130.564C124.33 130.564 124.729 130.446 125.044 130.21C125.36 129.977 125.517 129.605 125.517 129.094V127.807H125.437C125.36 127.946 125.249 128.101 125.104 128.271C124.962 128.442 124.766 128.589 124.516 128.714C124.266 128.839 123.941 128.902 123.54 128.902C123.023 128.902 122.557 128.781 122.142 128.54C121.731 128.295 121.404 127.936 121.162 127.462C120.924 126.984 120.804 126.398 120.804 125.702C120.804 125.006 120.922 124.409 121.158 123.912C121.397 123.415 121.723 123.034 122.138 122.77C122.553 122.503 123.023 122.369 123.549 122.369C123.955 122.369 124.283 122.438 124.533 122.574C124.783 122.707 124.978 122.864 125.117 123.043C125.259 123.222 125.368 123.379 125.445 123.516H125.539V122.455H126.787V129.145C126.787 129.707 126.657 130.169 126.395 130.53C126.134 130.891 125.78 131.158 125.334 131.331C124.891 131.504 124.391 131.591 123.834 131.591ZM123.821 127.845C124.188 127.845 124.498 127.76 124.75 127.589C125.006 127.416 125.199 127.169 125.33 126.848C125.464 126.524 125.53 126.136 125.53 125.685C125.53 125.244 125.465 124.857 125.334 124.521C125.204 124.186 125.012 123.925 124.759 123.737C124.506 123.547 124.194 123.452 123.821 123.452C123.438 123.452 123.118 123.551 122.863 123.75C122.607 123.946 122.414 124.213 122.283 124.551C122.155 124.889 122.091 125.267 122.091 125.685C122.091 126.114 122.157 126.49 122.287 126.814C122.418 127.138 122.611 127.391 122.867 127.572C123.125 127.754 123.444 127.845 123.821 127.845ZM133.401 124.053L132.246 124.257C132.198 124.109 132.121 123.969 132.016 123.835C131.914 123.702 131.775 123.592 131.598 123.507C131.422 123.422 131.202 123.379 130.938 123.379C130.577 123.379 130.276 123.46 130.035 123.622C129.793 123.781 129.672 123.987 129.672 124.24C129.672 124.459 129.753 124.635 129.915 124.768C130.077 124.902 130.339 125.011 130.699 125.097L131.739 125.335C132.341 125.474 132.79 125.689 133.086 125.979C133.381 126.268 133.529 126.645 133.529 127.108C133.529 127.5 133.415 127.849 133.188 128.156C132.964 128.46 132.65 128.699 132.246 128.872C131.846 129.045 131.381 129.132 130.853 129.132C130.12 129.132 129.522 128.976 129.059 128.663C128.596 128.348 128.312 127.901 128.206 127.321L129.438 127.134C129.515 127.455 129.672 127.697 129.911 127.862C130.15 128.024 130.461 128.105 130.844 128.105C131.262 128.105 131.596 128.018 131.846 127.845C132.096 127.669 132.221 127.455 132.221 127.202C132.221 126.997 132.144 126.825 131.991 126.686C131.84 126.547 131.608 126.442 131.296 126.371L130.188 126.128C129.577 125.989 129.125 125.767 128.833 125.463C128.543 125.159 128.398 124.774 128.398 124.308C128.398 123.922 128.506 123.584 128.722 123.294C128.938 123.004 129.236 122.778 129.617 122.616C129.998 122.452 130.434 122.369 130.925 122.369C131.633 122.369 132.189 122.523 132.596 122.83C133.002 123.134 133.27 123.541 133.401 124.053Z" fill="#1A191E"/>
<path d="M61.3133 156.74V139.18H62.6733V156.74H61.3133ZM62.1733 155.24C61.1467 155.24 60.2467 155.06 59.4733 154.7C58.7133 154.327 58.12 153.807 57.6933 153.14C57.2667 152.473 57.0467 151.693 57.0333 150.8H59.1333C59.1467 151.307 59.2667 151.773 59.4933 152.2C59.7333 152.613 60.0733 152.947 60.5133 153.2C60.9667 153.44 61.52 153.56 62.1733 153.56C62.7333 153.56 63.2133 153.467 63.6133 153.28C64.0267 153.093 64.34 152.84 64.5533 152.52C64.7667 152.187 64.8733 151.807 64.8733 151.38C64.8733 150.873 64.76 150.467 64.5333 150.16C64.3067 149.84 64 149.58 63.6133 149.38C63.2267 149.167 62.78 148.98 62.2733 148.82C61.78 148.66 61.26 148.487 60.7133 148.3C59.62 147.927 58.8067 147.46 58.2733 146.9C57.74 146.327 57.4733 145.58 57.4733 144.66C57.4733 143.873 57.6533 143.193 58.0133 142.62C58.3867 142.033 58.9133 141.58 59.5933 141.26C60.2733 140.927 61.0667 140.76 61.9733 140.76C62.88 140.76 63.6733 140.927 64.3533 141.26C65.0333 141.593 65.5667 142.053 65.9533 142.64C66.34 143.227 66.54 143.913 66.5533 144.7H64.4333C64.42 144.34 64.32 143.987 64.1333 143.64C63.9467 143.293 63.6667 143.013 63.2933 142.8C62.92 142.573 62.46 142.46 61.9133 142.46C61.46 142.447 61.0533 142.52 60.6933 142.68C60.3333 142.84 60.0533 143.073 59.8533 143.38C59.6533 143.687 59.5533 144.053 59.5533 144.48C59.5533 144.907 59.64 145.253 59.8133 145.52C60 145.773 60.2667 145.993 60.6133 146.18C60.96 146.367 61.36 146.54 61.8133 146.7C62.28 146.847 62.7933 147.013 63.3533 147.2C64.0467 147.427 64.66 147.707 65.1933 148.04C65.74 148.36 66.1733 148.78 66.4933 149.3C66.8133 149.807 66.9733 150.46 66.9733 151.26C66.9733 151.953 66.7867 152.6 66.4133 153.2C66.0533 153.8 65.52 154.293 64.8133 154.68C64.12 155.053 63.24 155.24 62.1733 155.24ZM77.9493 155.24C77.0293 155.24 76.1959 155.073 75.4493 154.74C74.7026 154.393 74.1093 153.913 73.6693 153.3C73.2426 152.687 73.0293 151.973 73.0293 151.16C73.0293 150.587 73.1359 150.06 73.3493 149.58C73.5626 149.087 73.8626 148.66 74.2493 148.3C74.6493 147.94 75.1159 147.68 75.6493 147.52C74.9293 147.24 74.3693 146.827 73.9693 146.28C73.5826 145.733 73.3893 145.133 73.3893 144.48C73.3893 143.8 73.5693 143.18 73.9293 142.62C74.2893 142.06 74.8093 141.613 75.4893 141.28C76.1693 140.933 76.9893 140.76 77.9493 140.76C78.9226 140.76 79.7493 140.933 80.4293 141.28C81.1093 141.613 81.6293 142.06 81.9893 142.62C82.3493 143.18 82.5293 143.8 82.5293 144.48C82.5293 145.133 82.3293 145.74 81.9293 146.3C81.5293 146.847 80.9759 147.253 80.2693 147.52C80.8026 147.68 81.2626 147.94 81.6493 148.3C82.0359 148.66 82.3359 149.087 82.5493 149.58C82.7759 150.06 82.8893 150.587 82.8893 151.16C82.8893 151.973 82.6693 152.687 82.2293 153.3C81.7893 153.913 81.1959 154.393 80.4493 154.74C79.7159 155.073 78.8826 155.24 77.9493 155.24ZM77.9493 153.52C78.9359 153.52 79.6693 153.293 80.1493 152.84C80.6426 152.373 80.8893 151.767 80.8893 151.02C80.8893 150.18 80.6226 149.54 80.0893 149.1C79.5693 148.66 78.8559 148.44 77.9493 148.44C77.0559 148.44 76.3426 148.66 75.8093 149.1C75.2759 149.54 75.0093 150.18 75.0093 151.02C75.0093 151.767 75.2559 152.373 75.7493 152.84C76.2426 153.293 76.9759 153.52 77.9493 153.52ZM77.9493 146.86C78.7493 146.86 79.3759 146.653 79.8293 146.24C80.2959 145.827 80.5293 145.3 80.5293 144.66C80.5293 143.927 80.3026 143.373 79.8493 143C79.3959 142.627 78.7626 142.44 77.9493 142.44C77.1626 142.44 76.5359 142.627 76.0693 143C75.6159 143.373 75.3893 143.927 75.3893 144.66C75.3893 145.3 75.6159 145.827 76.0693 146.24C76.5359 146.653 77.1626 146.86 77.9493 146.86ZM89.813 155.24C88.8397 155.24 87.993 155.067 87.273 154.72C86.553 154.36 85.9863 153.873 85.573 153.26C85.1597 152.647 84.9063 151.953 84.813 151.18H86.773C86.9063 151.873 87.2397 152.44 87.773 152.88C88.3197 153.32 89.0063 153.54 89.833 153.54C90.433 153.54 90.953 153.393 91.393 153.1C91.8463 152.807 92.193 152.413 92.433 151.92C92.673 151.427 92.793 150.873 92.793 150.26C92.793 149.62 92.6663 149.06 92.413 148.58C92.173 148.1 91.833 147.727 91.393 147.46C90.9663 147.193 90.4663 147.06 89.893 147.06C89.1863 147.06 88.5797 147.22 88.073 147.54C87.5663 147.86 87.1997 148.273 86.973 148.78H85.053L86.233 141H93.733V142.74H87.753L87.013 146.64C87.333 146.28 87.7597 145.987 88.293 145.76C88.8397 145.52 89.4597 145.4 90.153 145.4C90.873 145.4 91.5063 145.527 92.053 145.78C92.613 146.033 93.093 146.38 93.493 146.82C93.893 147.26 94.193 147.773 94.393 148.36C94.6063 148.947 94.713 149.573 94.713 150.24C94.713 150.933 94.5997 151.587 94.373 152.2C94.1597 152.8 93.8397 153.333 93.413 153.8C92.9863 154.253 92.4663 154.607 91.853 154.86C91.253 155.113 90.573 155.24 89.813 155.24ZM97.3777 155.1C96.991 155.1 96.671 154.98 96.4177 154.74C96.1777 154.487 96.0577 154.187 96.0577 153.84C96.0577 153.48 96.1777 153.18 96.4177 152.94C96.671 152.687 96.991 152.56 97.3777 152.56C97.7644 152.56 98.0777 152.687 98.3177 152.94C98.5577 153.18 98.6777 153.48 98.6777 153.84C98.6777 154.187 98.5577 154.487 98.3177 154.74C98.0777 154.98 97.7644 155.1 97.3777 155.1ZM100.076 155V153.56C100.996 152.84 101.869 152.113 102.696 151.38C103.536 150.647 104.282 149.92 104.936 149.2C105.589 148.467 106.102 147.753 106.476 147.06C106.862 146.353 107.056 145.68 107.056 145.04C107.056 144.587 106.976 144.167 106.816 143.78C106.656 143.393 106.402 143.08 106.056 142.84C105.709 142.587 105.242 142.46 104.656 142.46C104.082 142.46 103.602 142.587 103.216 142.84C102.842 143.093 102.556 143.433 102.356 143.86C102.169 144.273 102.076 144.733 102.076 145.24H100.156C100.169 144.28 100.369 143.467 100.756 142.8C101.156 142.133 101.696 141.627 102.376 141.28C103.069 140.933 103.842 140.76 104.696 140.76C105.576 140.76 106.342 140.927 106.996 141.26C107.649 141.58 108.156 142.053 108.516 142.68C108.876 143.293 109.056 144.047 109.056 144.94C109.056 145.58 108.929 146.22 108.676 146.86C108.422 147.487 108.076 148.1 107.636 148.7C107.209 149.3 106.729 149.88 106.196 150.44C105.662 150.987 105.116 151.507 104.556 152C103.996 152.493 103.462 152.94 102.956 153.34H109.476V155H100.076ZM110.96 155V153.56C111.88 152.84 112.753 152.113 113.58 151.38C114.42 150.647 115.167 149.92 115.82 149.2C116.473 148.467 116.987 147.753 117.36 147.06C117.747 146.353 117.94 145.68 117.94 145.04C117.94 144.587 117.86 144.167 117.7 143.78C117.54 143.393 117.287 143.08 116.94 142.84C116.593 142.587 116.127 142.46 115.54 142.46C114.967 142.46 114.487 142.587 114.1 142.84C113.727 143.093 113.44 143.433 113.24 143.86C113.053 144.273 112.96 144.733 112.96 145.24H111.04C111.053 144.28 111.253 143.467 111.64 142.8C112.04 142.133 112.58 141.627 113.26 141.28C113.953 140.933 114.727 140.76 115.58 140.76C116.46 140.76 117.227 140.927 117.88 141.26C118.533 141.58 119.04 142.053 119.4 142.68C119.76 143.293 119.94 144.047 119.94 144.94C119.94 145.58 119.813 146.22 119.56 146.86C119.307 147.487 118.96 148.1 118.52 148.7C118.093 149.3 117.613 149.88 117.08 150.44C116.547 150.987 116 151.507 115.44 152C114.88 152.493 114.347 152.94 113.84 153.34H120.36V155H110.96ZM121.844 155V153.56C122.764 152.84 123.638 152.113 124.464 151.38C125.304 150.647 126.051 149.92 126.704 149.2C127.358 148.467 127.871 147.753 128.244 147.06C128.631 146.353 128.824 145.68 128.824 145.04C128.824 144.587 128.744 144.167 128.584 143.78C128.424 143.393 128.171 143.08 127.824 142.84C127.478 142.587 127.011 142.46 126.424 142.46C125.851 142.46 125.371 142.587 124.984 142.84C124.611 143.093 124.324 143.433 124.124 143.86C123.938 144.273 123.844 144.733 123.844 145.24H121.924C121.938 144.28 122.138 143.467 122.524 142.8C122.924 142.133 123.464 141.627 124.144 141.28C124.838 140.933 125.611 140.76 126.464 140.76C127.344 140.76 128.111 140.927 128.764 141.26C129.418 141.58 129.924 142.053 130.284 142.68C130.644 143.293 130.824 144.047 130.824 144.94C130.824 145.58 130.698 146.22 130.444 146.86C130.191 147.487 129.844 148.1 129.404 148.7C128.978 149.3 128.498 149.88 127.964 150.44C127.431 150.987 126.884 151.507 126.324 152C125.764 152.493 125.231 152.94 124.724 153.34H131.244V155H121.844ZM131.709 157.46L132.869 152.84H134.869L133.069 157.46H131.709ZM141.913 155.24C140.66 155.24 139.58 154.94 138.673 154.34C137.766 153.727 137.073 152.88 136.593 151.8C136.113 150.707 135.873 149.44 135.873 148C135.873 146.56 136.113 145.3 136.593 144.22C137.073 143.127 137.76 142.28 138.653 141.68C139.56 141.067 140.64 140.76 141.893 140.76C143.16 140.76 144.24 141.067 145.133 141.68C146.026 142.28 146.713 143.127 147.193 144.22C147.673 145.3 147.913 146.56 147.913 148C147.913 149.44 147.673 150.707 147.193 151.8C146.713 152.88 146.02 153.727 145.113 154.34C144.22 154.94 143.153 155.24 141.913 155.24ZM141.893 153.46C142.666 153.46 143.353 153.24 143.953 152.8C144.553 152.36 145.02 151.733 145.353 150.92C145.7 150.107 145.873 149.133 145.873 148C145.873 146.867 145.7 145.893 145.353 145.08C145.02 144.267 144.553 143.647 143.953 143.22C143.353 142.78 142.666 142.56 141.893 142.56C141.12 142.56 140.433 142.78 139.833 143.22C139.233 143.647 138.76 144.267 138.413 145.08C138.08 145.893 137.913 146.867 137.913 148C137.913 149.133 138.08 150.107 138.413 150.92C138.76 151.733 139.233 152.36 139.833 152.8C140.433 153.24 141.12 153.46 141.893 153.46ZM155.219 155.24C153.966 155.24 152.886 154.94 151.979 154.34C151.073 153.727 150.379 152.88 149.899 151.8C149.419 150.707 149.179 149.44 149.179 148C149.179 146.56 149.419 145.3 149.899 144.22C150.379 143.127 151.066 142.28 151.959 141.68C152.866 141.067 153.946 140.76 155.199 140.76C156.466 140.76 157.546 141.067 158.439 141.68C159.333 142.28 160.019 143.127 160.499 144.22C160.979 145.3 161.219 146.56 161.219 148C161.219 149.44 160.979 150.707 160.499 151.8C160.019 152.88 159.326 153.727 158.419 154.34C157.526 154.94 156.459 155.24 155.219 155.24ZM155.199 153.46C155.973 153.46 156.659 153.24 157.259 152.8C157.859 152.36 158.326 151.733 158.659 150.92C159.006 150.107 159.179 149.133 159.179 148C159.179 146.867 159.006 145.893 158.659 145.08C158.326 144.267 157.859 143.647 157.259 143.22C156.659 142.78 155.973 142.56 155.199 142.56C154.426 142.56 153.739 142.78 153.139 143.22C152.539 143.647 152.066 144.267 151.719 145.08C151.386 145.893 151.219 146.867 151.219 148C151.219 149.133 151.386 150.107 151.719 150.92C152.066 151.733 152.539 152.36 153.139 152.8C153.739 153.24 154.426 153.46 155.199 153.46Z" fill="#1A191E"/>
<rect x="198.653" y="99" width="147" height="77" rx="10" fill="#F8F8F8"/>
<path d="M245.427 129V120.273H250.898V121.406H246.743V124.065H250.613V125.195H246.743V127.866H250.949V129H245.427ZM253.56 122.455L255.005 125.003L256.462 122.455H257.856L255.815 125.727L257.873 129H256.479L255.005 126.554L253.535 129H252.137L254.174 125.727L252.163 122.455H253.56ZM259.164 131.455V122.455H260.408V123.516H260.515C260.589 123.379 260.695 123.222 260.835 123.043C260.974 122.864 261.167 122.707 261.414 122.574C261.661 122.438 261.988 122.369 262.394 122.369C262.923 122.369 263.394 122.503 263.809 122.77C264.224 123.037 264.549 123.422 264.785 123.925C265.024 124.428 265.143 125.033 265.143 125.74C265.143 126.447 265.025 127.054 264.789 127.56C264.553 128.062 264.229 128.45 263.818 128.723C263.406 128.993 262.935 129.128 262.407 129.128C262.009 129.128 261.684 129.061 261.431 128.928C261.181 128.794 260.985 128.638 260.843 128.459C260.701 128.28 260.592 128.121 260.515 127.982H260.438V131.455H259.164ZM260.413 125.727C260.413 126.187 260.479 126.591 260.613 126.938C260.747 127.284 260.94 127.555 261.193 127.751C261.445 127.945 261.755 128.041 262.122 128.041C262.502 128.041 262.82 127.94 263.076 127.739C263.332 127.534 263.525 127.257 263.656 126.908C263.789 126.558 263.856 126.165 263.856 125.727C263.856 125.295 263.791 124.908 263.66 124.564C263.532 124.22 263.339 123.949 263.08 123.75C262.825 123.551 262.505 123.452 262.122 123.452C261.752 123.452 261.44 123.547 261.184 123.737C260.931 123.928 260.739 124.193 260.609 124.534C260.478 124.875 260.413 125.273 260.413 125.727ZM269.391 129.132C268.747 129.132 268.191 128.994 267.725 128.719C267.262 128.44 266.904 128.05 266.651 127.547C266.401 127.041 266.276 126.449 266.276 125.77C266.276 125.099 266.401 124.509 266.651 123.997C266.904 123.486 267.256 123.087 267.708 122.8C268.163 122.513 268.694 122.369 269.302 122.369C269.671 122.369 270.029 122.43 270.376 122.553C270.722 122.675 271.033 122.866 271.309 123.128C271.585 123.389 271.802 123.729 271.961 124.146C272.12 124.561 272.2 125.065 272.2 125.659V126.111H266.997V125.156H270.951C270.951 124.821 270.883 124.524 270.747 124.266C270.61 124.004 270.418 123.798 270.171 123.648C269.927 123.497 269.64 123.422 269.31 123.422C268.953 123.422 268.64 123.51 268.373 123.686C268.109 123.859 267.904 124.087 267.759 124.368C267.617 124.646 267.546 124.949 267.546 125.276V126.021C267.546 126.459 267.623 126.831 267.776 127.138C267.933 127.445 268.15 127.679 268.428 127.841C268.707 128 269.032 128.08 269.404 128.08C269.646 128.08 269.866 128.045 270.065 127.977C270.264 127.906 270.435 127.801 270.58 127.662C270.725 127.523 270.836 127.351 270.913 127.146L272.119 127.364C272.022 127.719 271.849 128.03 271.599 128.297C271.352 128.561 271.041 128.767 270.666 128.915C270.293 129.06 269.869 129.132 269.391 129.132ZM274.888 125.114V129H273.613V122.455H274.836V123.52H274.917C275.068 123.173 275.304 122.895 275.625 122.685C275.949 122.474 276.356 122.369 276.848 122.369C277.294 122.369 277.684 122.463 278.02 122.651C278.355 122.835 278.615 123.111 278.799 123.477C278.984 123.844 279.076 124.297 279.076 124.837V129H277.802V124.99C277.802 124.516 277.679 124.145 277.432 123.878C277.184 123.608 276.845 123.473 276.413 123.473C276.118 123.473 275.855 123.537 275.625 123.665C275.397 123.793 275.217 123.98 275.084 124.227C274.953 124.472 274.888 124.767 274.888 125.114ZM285.69 124.053L284.535 124.257C284.487 124.109 284.41 123.969 284.305 123.835C284.203 123.702 284.064 123.592 283.888 123.507C283.711 123.422 283.491 123.379 283.227 123.379C282.866 123.379 282.565 123.46 282.324 123.622C282.082 123.781 281.961 123.987 281.961 124.24C281.961 124.459 282.042 124.635 282.204 124.768C282.366 124.902 282.628 125.011 282.988 125.097L284.028 125.335C284.63 125.474 285.079 125.689 285.375 125.979C285.67 126.268 285.818 126.645 285.818 127.108C285.818 127.5 285.704 127.849 285.477 128.156C285.253 128.46 284.939 128.699 284.535 128.872C284.135 129.045 283.67 129.132 283.142 129.132C282.409 129.132 281.811 128.976 281.348 128.663C280.885 128.348 280.601 127.901 280.495 127.321L281.727 127.134C281.804 127.455 281.961 127.697 282.2 127.862C282.439 128.024 282.75 128.105 283.133 128.105C283.551 128.105 283.885 128.018 284.135 127.845C284.385 127.669 284.51 127.455 284.51 127.202C284.51 126.997 284.433 126.825 284.28 126.686C284.129 126.547 283.897 126.442 283.585 126.371L282.477 126.128C281.866 125.989 281.415 125.767 281.122 125.463C280.832 125.159 280.687 124.774 280.687 124.308C280.687 123.922 280.795 123.584 281.011 123.294C281.227 123.004 281.525 122.778 281.906 122.616C282.287 122.452 282.723 122.369 283.214 122.369C283.922 122.369 284.478 122.523 284.885 122.83C285.291 123.134 285.559 123.541 285.69 124.053ZM290.04 129.132C289.395 129.132 288.84 128.994 288.374 128.719C287.911 128.44 287.553 128.05 287.3 127.547C287.05 127.041 286.925 126.449 286.925 125.77C286.925 125.099 287.05 124.509 287.3 123.997C287.553 123.486 287.905 123.087 288.357 122.8C288.811 122.513 289.342 122.369 289.95 122.369C290.32 122.369 290.678 122.43 291.024 122.553C291.371 122.675 291.682 122.866 291.957 123.128C292.233 123.389 292.45 123.729 292.609 124.146C292.769 124.561 292.848 125.065 292.848 125.659V126.111H287.645V125.156H291.6C291.6 124.821 291.531 124.524 291.395 124.266C291.259 124.004 291.067 123.798 290.82 123.648C290.575 123.497 290.288 123.422 289.959 123.422C289.601 123.422 289.288 123.51 289.021 123.686C288.757 123.859 288.553 124.087 288.408 124.368C288.266 124.646 288.195 124.949 288.195 125.276V126.021C288.195 126.459 288.271 126.831 288.425 127.138C288.581 127.445 288.798 127.679 289.077 127.841C289.355 128 289.68 128.08 290.053 128.08C290.294 128.08 290.514 128.045 290.713 127.977C290.912 127.906 291.084 127.801 291.229 127.662C291.374 127.523 291.484 127.351 291.561 127.146L292.767 127.364C292.671 127.719 292.497 128.03 292.247 128.297C292 128.561 291.689 128.767 291.314 128.915C290.942 129.06 290.517 129.132 290.04 129.132ZM299.167 124.053L298.012 124.257C297.964 124.109 297.887 123.969 297.782 123.835C297.679 123.702 297.54 123.592 297.364 123.507C297.188 123.422 296.968 123.379 296.704 123.379C296.343 123.379 296.042 123.46 295.8 123.622C295.559 123.781 295.438 123.987 295.438 124.24C295.438 124.459 295.519 124.635 295.681 124.768C295.843 124.902 296.104 125.011 296.465 125.097L297.505 125.335C298.107 125.474 298.556 125.689 298.851 125.979C299.147 126.268 299.294 126.645 299.294 127.108C299.294 127.5 299.181 127.849 298.954 128.156C298.729 128.46 298.415 128.699 298.012 128.872C297.611 129.045 297.147 129.132 296.618 129.132C295.885 129.132 295.287 128.976 294.824 128.663C294.361 128.348 294.077 127.901 293.972 127.321L295.204 127.134C295.28 127.455 295.438 127.697 295.677 127.862C295.915 128.024 296.226 128.105 296.61 128.105C297.027 128.105 297.361 128.018 297.611 127.845C297.861 127.669 297.986 127.455 297.986 127.202C297.986 126.997 297.91 126.825 297.756 126.686C297.606 126.547 297.374 126.442 297.062 126.371L295.954 126.128C295.343 125.989 294.891 125.767 294.598 125.463C294.309 125.159 294.164 124.774 294.164 124.308C294.164 123.922 294.272 123.584 294.488 123.294C294.704 123.004 295.002 122.778 295.383 122.616C295.763 122.452 296.199 122.369 296.691 122.369C297.398 122.369 297.955 122.523 298.361 122.83C298.767 123.134 299.036 123.541 299.167 124.053Z" fill="#1A191E"/>
<path d="M218.153 150V148.32H226.233V150H218.153ZM236.766 156.74V139.18H238.126V156.74H236.766ZM237.626 155.24C236.599 155.24 235.699 155.06 234.926 154.7C234.166 154.327 233.572 153.807 233.146 153.14C232.719 152.473 232.499 151.693 232.486 150.8H234.586C234.599 151.307 234.719 151.773 234.946 152.2C235.186 152.613 235.526 152.947 235.966 153.2C236.419 153.44 236.972 153.56 237.626 153.56C238.186 153.56 238.666 153.467 239.066 153.28C239.479 153.093 239.792 152.84 240.006 152.52C240.219 152.187 240.326 151.807 240.326 151.38C240.326 150.873 240.212 150.467 239.986 150.16C239.759 149.84 239.452 149.58 239.066 149.38C238.679 149.167 238.232 148.98 237.726 148.82C237.232 148.66 236.712 148.487 236.166 148.3C235.072 147.927 234.259 147.46 233.726 146.9C233.192 146.327 232.926 145.58 232.926 144.66C232.926 143.873 233.106 143.193 233.466 142.62C233.839 142.033 234.366 141.58 235.046 141.26C235.726 140.927 236.519 140.76 237.426 140.76C238.332 140.76 239.126 140.927 239.806 141.26C240.486 141.593 241.019 142.053 241.406 142.64C241.792 143.227 241.992 143.913 242.006 144.7H239.886C239.872 144.34 239.772 143.987 239.586 143.64C239.399 143.293 239.119 143.013 238.746 142.8C238.372 142.573 237.912 142.46 237.366 142.46C236.912 142.447 236.506 142.52 236.146 142.68C235.786 142.84 235.506 143.073 235.306 143.38C235.106 143.687 235.006 144.053 235.006 144.48C235.006 144.907 235.092 145.253 235.266 145.52C235.452 145.773 235.719 145.993 236.066 146.18C236.412 146.367 236.812 146.54 237.266 146.7C237.732 146.847 238.246 147.013 238.806 147.2C239.499 147.427 240.112 147.707 240.646 148.04C241.192 148.36 241.626 148.78 241.946 149.3C242.266 149.807 242.426 150.46 242.426 151.26C242.426 151.953 242.239 152.6 241.866 153.2C241.506 153.8 240.972 154.293 240.266 154.68C239.572 155.053 238.692 155.24 237.626 155.24ZM249.004 155.24C248.031 155.24 247.184 155.067 246.464 154.72C245.744 154.36 245.178 153.873 244.764 153.26C244.351 152.647 244.098 151.953 244.004 151.18H245.964C246.098 151.873 246.431 152.44 246.964 152.88C247.511 153.32 248.198 153.54 249.024 153.54C249.624 153.54 250.144 153.393 250.584 153.1C251.038 152.807 251.384 152.413 251.624 151.92C251.864 151.427 251.984 150.873 251.984 150.26C251.984 149.62 251.858 149.06 251.604 148.58C251.364 148.1 251.024 147.727 250.584 147.46C250.158 147.193 249.658 147.06 249.084 147.06C248.378 147.06 247.771 147.22 247.264 147.54C246.758 147.86 246.391 148.273 246.164 148.78H244.244L245.424 141H252.924V142.74H246.944L246.204 146.64C246.524 146.28 246.951 145.987 247.484 145.76C248.031 145.52 248.651 145.4 249.344 145.4C250.064 145.4 250.698 145.527 251.244 145.78C251.804 146.033 252.284 146.38 252.684 146.82C253.084 147.26 253.384 147.773 253.584 148.36C253.798 148.947 253.904 149.573 253.904 150.24C253.904 150.933 253.791 151.587 253.564 152.2C253.351 152.8 253.031 153.333 252.604 153.8C252.178 154.253 251.658 154.607 251.044 154.86C250.444 155.113 249.764 155.24 249.004 155.24ZM255.336 155V153.56C256.256 152.84 257.129 152.113 257.956 151.38C258.796 150.647 259.542 149.92 260.196 149.2C260.849 148.467 261.362 147.753 261.736 147.06C262.122 146.353 262.316 145.68 262.316 145.04C262.316 144.587 262.236 144.167 262.076 143.78C261.916 143.393 261.662 143.08 261.316 142.84C260.969 142.587 260.502 142.46 259.916 142.46C259.342 142.46 258.862 142.587 258.476 142.84C258.102 143.093 257.816 143.433 257.616 143.86C257.429 144.273 257.336 144.733 257.336 145.24H255.416C255.429 144.28 255.629 143.467 256.016 142.8C256.416 142.133 256.956 141.627 257.636 141.28C258.329 140.933 259.102 140.76 259.956 140.76C260.836 140.76 261.602 140.927 262.256 141.26C262.909 141.58 263.416 142.053 263.776 142.68C264.136 143.293 264.316 144.047 264.316 144.94C264.316 145.58 264.189 146.22 263.936 146.86C263.682 147.487 263.336 148.1 262.896 148.7C262.469 149.3 261.989 149.88 261.456 150.44C260.922 150.987 260.376 151.507 259.816 152C259.256 152.493 258.722 152.94 258.216 153.34H264.736V155H255.336ZM267.18 155.1C266.793 155.1 266.473 154.98 266.22 154.74C265.98 154.487 265.86 154.187 265.86 153.84C265.86 153.48 265.98 153.18 266.22 152.94C266.473 152.687 266.793 152.56 267.18 152.56C267.567 152.56 267.88 152.687 268.12 152.94C268.36 153.18 268.48 153.48 268.48 153.84C268.48 154.187 268.36 154.487 268.12 154.74C267.88 154.98 267.567 155.1 267.18 155.1ZM271.111 155V143.26L268.771 143.82V142.34L271.871 141H273.171V155H271.111ZM280.296 155.24C279.322 155.24 278.476 155.067 277.756 154.72C277.036 154.36 276.469 153.873 276.056 153.26C275.642 152.647 275.389 151.953 275.296 151.18H277.256C277.389 151.873 277.722 152.44 278.256 152.88C278.802 153.32 279.489 153.54 280.316 153.54C280.916 153.54 281.436 153.393 281.876 153.1C282.329 152.807 282.676 152.413 282.916 151.92C283.156 151.427 283.276 150.873 283.276 150.26C283.276 149.62 283.149 149.06 282.896 148.58C282.656 148.1 282.316 147.727 281.876 147.46C281.449 147.193 280.949 147.06 280.376 147.06C279.669 147.06 279.062 147.22 278.556 147.54C278.049 147.86 277.682 148.273 277.456 148.78H275.536L276.716 141H284.216V142.74H278.236L277.496 146.64C277.816 146.28 278.242 145.987 278.776 145.76C279.322 145.52 279.942 145.4 280.636 145.4C281.356 145.4 281.989 145.527 282.536 145.78C283.096 146.033 283.576 146.38 283.976 146.82C284.376 147.26 284.676 147.773 284.876 148.36C285.089 148.947 285.196 149.573 285.196 150.24C285.196 150.933 285.082 151.587 284.856 152.2C284.642 152.8 284.322 153.333 283.896 153.8C283.469 154.253 282.949 154.607 282.336 154.86C281.736 155.113 281.056 155.24 280.296 155.24ZM292.701 155.24C291.447 155.24 290.367 154.94 289.461 154.34C288.554 153.727 287.861 152.88 287.381 151.8C286.901 150.707 286.661 149.44 286.661 148C286.661 146.56 286.901 145.3 287.381 144.22C287.861 143.127 288.547 142.28 289.441 141.68C290.347 141.067 291.427 140.76 292.681 140.76C293.947 140.76 295.027 141.067 295.921 141.68C296.814 142.28 297.501 143.127 297.981 144.22C298.461 145.3 298.701 146.56 298.701 148C298.701 149.44 298.461 150.707 297.981 151.8C297.501 152.88 296.807 153.727 295.901 154.34C295.007 154.94 293.941 155.24 292.701 155.24ZM292.681 153.46C293.454 153.46 294.141 153.24 294.741 152.8C295.341 152.36 295.807 151.733 296.141 150.92C296.487 150.107 296.661 149.133 296.661 148C296.661 146.867 296.487 145.893 296.141 145.08C295.807 144.267 295.341 143.647 294.741 143.22C294.141 142.78 293.454 142.56 292.681 142.56C291.907 142.56 291.221 142.78 290.621 143.22C290.021 143.647 289.547 144.267 289.201 145.08C288.867 145.893 288.701 146.867 288.701 148C288.701 149.133 288.867 150.107 289.201 150.92C289.547 151.733 290.021 152.36 290.621 152.8C291.221 153.24 291.907 153.46 292.681 153.46ZM298.581 157.46L299.741 152.84H301.741L299.941 157.46H298.581ZM308.086 155.24C307.112 155.24 306.266 155.067 305.546 154.72C304.826 154.36 304.259 153.873 303.846 153.26C303.432 152.647 303.179 151.953 303.086 151.18H305.046C305.179 151.873 305.512 152.44 306.046 152.88C306.592 153.32 307.279 153.54 308.106 153.54C308.706 153.54 309.226 153.393 309.666 153.1C310.119 152.807 310.466 152.413 310.706 151.92C310.946 151.427 311.066 150.873 311.066 150.26C311.066 149.62 310.939 149.06 310.686 148.58C310.446 148.1 310.106 147.727 309.666 147.46C309.239 147.193 308.739 147.06 308.166 147.06C307.459 147.06 306.852 147.22 306.346 147.54C305.839 147.86 305.472 148.273 305.246 148.78H303.326L304.506 141H312.006V142.74H306.026L305.286 146.64C305.606 146.28 306.032 145.987 306.566 145.76C307.112 145.52 307.732 145.4 308.426 145.4C309.146 145.4 309.779 145.527 310.326 145.78C310.886 146.033 311.366 146.38 311.766 146.82C312.166 147.26 312.466 147.773 312.666 148.36C312.879 148.947 312.986 149.573 312.986 150.24C312.986 150.933 312.872 151.587 312.646 152.2C312.432 152.8 312.112 153.333 311.686 153.8C311.259 154.253 310.739 154.607 310.126 154.86C309.526 155.113 308.846 155.24 308.086 155.24ZM320.49 155.24C319.237 155.24 318.157 154.94 317.25 154.34C316.344 153.727 315.65 152.88 315.17 151.8C314.69 150.707 314.45 149.44 314.45 148C314.45 146.56 314.69 145.3 315.17 144.22C315.65 143.127 316.337 142.28 317.23 141.68C318.137 141.067 319.217 140.76 320.47 140.76C321.737 140.76 322.817 141.067 323.71 141.68C324.604 142.28 325.29 143.127 325.77 144.22C326.25 145.3 326.49 146.56 326.49 148C326.49 149.44 326.25 150.707 325.77 151.8C325.29 152.88 324.597 153.727 323.69 154.34C322.797 154.94 321.73 155.24 320.49 155.24ZM320.47 153.46C321.244 153.46 321.93 153.24 322.53 152.8C323.13 152.36 323.597 151.733 323.93 150.92C324.277 150.107 324.45 149.133 324.45 148C324.45 146.867 324.277 145.893 323.93 145.08C323.597 144.267 323.13 143.647 322.53 143.22C321.93 142.78 321.244 142.56 320.47 142.56C319.697 142.56 319.01 142.78 318.41 143.22C317.81 143.647 317.337 144.267 316.99 145.08C316.657 145.893 316.49 146.867 316.49 148C316.49 149.133 316.657 150.107 316.99 150.92C317.337 151.733 317.81 152.36 318.41 152.8C319.01 153.24 319.697 153.46 320.47 153.46Z" fill="#1A191E"/>
<rect width="12" height="12" rx="6" transform="matrix(0.999985 0.0054928 -0.0163752 0.999866 35.8887 203.968)" fill="#5BB5A2"/>
<path d="M56.7332 214.5L56.8282 205.773H62.2998L62.2874 206.906H58.1326L58.1037 209.565H61.973L61.9607 210.694H58.0914L58.0623 213.366H62.2683L62.2559 214.5H56.7332ZM65.7647 214.645C65.3499 214.645 64.9757 214.568 64.6422 214.414C64.3086 214.258 64.0455 214.032 63.8527 213.737C63.6627 213.441 63.57 213.079 63.5747 212.65C63.5787 212.281 63.6531 211.977 63.7977 211.738C63.9423 211.5 64.1362 211.311 64.3792 211.172C64.6221 211.033 64.8932 210.927 65.1922 210.856C65.4913 210.785 65.7959 210.731 66.1059 210.694C66.4985 210.649 66.8171 210.612 67.0617 210.584C67.3063 210.552 67.4844 210.503 67.596 210.435C67.7075 210.366 67.7641 210.256 67.7658 210.102L67.7661 210.072C67.7702 209.7 67.6682 209.412 67.4602 209.207C67.255 209.003 66.9465 208.901 66.5346 208.901C66.1056 208.901 65.7665 208.996 65.5172 209.186C65.2709 209.374 65.0996 209.582 65.0033 209.812L63.8088 209.54C63.9552 209.142 64.1661 208.821 64.4415 208.577C64.7197 208.33 65.0385 208.151 65.3976 208.04C65.7568 207.926 66.1338 207.869 66.5287 207.869C66.7901 207.869 67.0667 207.901 67.3587 207.963C67.6535 208.023 67.9278 208.134 68.1818 208.295C68.4385 208.457 68.6477 208.689 68.8091 208.99C68.9707 209.288 69.0488 209.676 69.0436 210.153L68.9963 214.5H67.752L67.7618 213.605H67.7106C67.6264 213.77 67.5011 213.932 67.3346 214.091C67.1681 214.25 66.955 214.382 66.6953 214.487C66.4357 214.592 66.1254 214.645 65.7647 214.645ZM66.0528 213.622C66.405 213.622 66.7069 213.552 66.9585 213.413C67.2128 213.274 67.4065 213.092 67.5397 212.868C67.6757 212.64 67.7451 212.398 67.7479 212.139L67.7571 211.295C67.7111 211.341 67.6226 211.383 67.4915 211.423C67.3632 211.46 67.2166 211.493 67.0515 211.521C66.8864 211.547 66.7257 211.571 66.5692 211.594C66.4127 211.613 66.2818 211.631 66.1766 211.645C65.9291 211.676 65.7026 211.729 65.4973 211.802C65.2948 211.876 65.1317 211.983 65.008 212.122C64.8872 212.258 64.8256 212.44 64.8231 212.667C64.8197 212.983 64.9336 213.221 65.1647 213.383C65.396 213.542 65.692 213.622 66.0528 213.622ZM70.6934 214.5L70.7647 207.955H71.9962L71.9849 208.994H72.0531C72.1762 208.642 72.3895 208.365 72.6928 208.163C72.999 207.959 73.3439 207.857 73.7274 207.857C73.8069 207.857 73.9006 207.859 74.0085 207.865C74.1193 207.871 74.2058 207.878 74.2682 207.886L74.255 209.105C74.204 209.091 74.1133 209.075 73.9828 209.058C73.8523 209.038 73.7217 209.028 73.591 209.028C73.2899 209.028 73.0207 209.092 72.7836 209.22C72.5492 209.345 72.3627 209.52 72.2239 209.744C72.0851 209.966 72.0142 210.219 72.0111 210.503L71.9676 214.5H70.6934ZM76.6153 210.614L76.573 214.5H75.2989L75.3701 207.955H76.5931L76.5815 209.02H76.6625C76.8169 208.673 77.0557 208.395 77.379 208.185C77.7051 207.974 78.114 207.869 78.6054 207.869C79.0515 207.869 79.4411 207.963 79.7742 208.151C80.1075 208.335 80.3644 208.611 80.5451 208.977C80.7258 209.344 80.8132 209.797 80.8073 210.337L80.762 214.5H79.4878L79.5315 210.49C79.5366 210.016 79.4171 209.645 79.1728 209.378C78.9286 209.108 78.5906 208.973 78.1588 208.973C77.8633 208.973 77.5998 209.037 77.3683 209.165C77.1397 209.293 76.9572 209.48 76.821 209.727C76.6877 209.972 76.6191 210.267 76.6153 210.614ZM82.4708 214.5L82.542 207.955H83.8162L83.7449 214.5H82.4708ZM83.1965 206.945C82.9749 206.945 82.7853 206.871 82.6279 206.723C82.4732 206.573 82.3971 206.394 82.3993 206.186C82.4016 205.976 82.4817 205.797 82.6395 205.649C82.8003 205.499 82.9914 205.423 83.213 205.423C83.4346 205.423 83.6227 205.499 83.7773 205.649C83.9348 205.797 84.0124 205.976 84.0101 206.186C84.0079 206.394 83.9264 206.573 83.7656 206.723C83.6078 206.871 83.4181 206.945 83.1965 206.945ZM86.7755 210.614L86.7332 214.5H85.4591L85.5303 207.955H86.7533L86.7417 209.02H86.8227C86.977 208.673 87.2158 208.395 87.5391 208.185C87.8653 207.974 88.2741 207.869 88.7656 207.869C89.2116 207.869 89.6012 207.963 89.9344 208.151C90.2676 208.335 90.5246 208.611 90.7052 208.977C90.8859 209.344 90.9733 209.797 90.9674 210.337L90.9221 214.5H89.648L89.6916 210.49C89.6968 210.016 89.5772 209.645 89.333 209.378C89.0888 209.108 88.7507 208.973 88.3189 208.973C88.0235 208.973 87.76 209.037 87.5285 209.165C87.2998 209.293 87.1174 209.48 86.9812 209.727C86.8478 209.972 86.7793 210.267 86.7755 210.614ZM95.3471 217.09C94.8272 217.09 94.3805 217.022 94.0069 216.886C93.6363 216.75 93.3343 216.569 93.1009 216.345C92.8676 216.12 92.6941 215.875 92.5805 215.608L93.6806 215.156C93.7559 215.281 93.8568 215.413 93.9831 215.552C94.1122 215.694 94.2871 215.815 94.5076 215.914C94.7309 216.014 95.0187 216.063 95.371 216.063C95.854 216.063 96.2544 215.946 96.5723 215.71C96.8902 215.477 97.0519 215.105 97.0575 214.593L97.0715 213.307H96.9905C96.9123 213.446 96.7998 213.601 96.6531 213.771C96.5092 213.941 96.3115 214.089 96.0602 214.214C95.8088 214.339 95.4828 214.402 95.0823 214.402C94.5652 214.402 94.1006 214.281 93.6885 214.039C93.2792 213.795 92.9564 213.436 92.7201 212.961C92.4867 212.484 92.3737 211.898 92.3813 211.202C92.3889 210.506 92.5133 209.909 92.7545 209.412C92.9985 208.915 93.3294 208.534 93.747 208.27C94.1647 208.003 94.6363 207.869 95.1619 207.869C95.5681 207.869 95.8955 207.938 96.144 208.074C96.3926 208.207 96.5855 208.364 96.7228 208.543C96.8628 208.722 96.9705 208.879 97.0457 209.016H97.1395L97.151 207.955H98.3996L98.3268 214.645C98.3207 215.207 98.185 215.669 97.9197 216.029C97.6544 216.39 97.2978 216.657 96.8499 216.83C96.4048 217.004 95.9039 217.09 95.3471 217.09ZM95.375 213.345C95.7415 213.345 96.0521 213.26 96.3068 213.089C96.5644 212.916 96.7602 212.669 96.8944 212.348C97.0315 212.024 97.1024 211.636 97.1074 211.185C97.1121 210.744 97.051 210.356 96.924 210.021C96.797 209.686 96.608 209.425 96.3572 209.237C96.1065 209.047 95.795 208.952 95.4228 208.952C95.0393 208.952 94.7186 209.051 94.4608 209.25C94.203 209.446 94.0069 209.713 93.8725 210.051C93.741 210.389 93.673 210.767 93.6684 211.185C93.6638 211.613 93.725 211.99 93.8522 212.314C93.9793 212.638 94.1698 212.89 94.4235 213.072C94.68 213.254 94.9972 213.345 95.375 213.345ZM104.996 209.553L103.839 209.757C103.792 209.609 103.717 209.469 103.613 209.335C103.512 209.202 103.374 209.092 103.199 209.007C103.024 208.922 102.804 208.879 102.54 208.879C102.179 208.879 101.877 208.96 101.634 209.122C101.391 209.281 101.268 209.487 101.265 209.74C101.263 209.959 101.342 210.135 101.502 210.268C101.663 210.402 101.923 210.511 102.283 210.596L103.32 210.835C103.921 210.974 104.367 211.189 104.66 211.479C104.952 211.768 105.095 212.145 105.09 212.608C105.086 213 104.969 213.349 104.738 213.656C104.51 213.96 104.194 214.199 103.789 214.372C103.386 214.545 102.921 214.632 102.392 214.632C101.659 214.632 101.063 214.476 100.603 214.163C100.144 213.848 99.8645 213.4 99.7657 212.821L100.999 212.633C101.072 212.954 101.227 213.197 101.464 213.362C101.701 213.524 102.011 213.605 102.395 213.605C102.813 213.605 103.147 213.518 103.399 213.345C103.651 213.169 103.778 212.954 103.781 212.701C103.783 212.497 103.709 212.325 103.557 212.186C103.408 212.047 103.177 211.942 102.866 211.871L101.76 211.628C101.151 211.488 100.702 211.267 100.412 210.963C100.126 210.659 99.9852 210.274 99.9902 209.808C99.9944 209.422 100.106 209.084 100.325 208.794C100.544 208.504 100.845 208.278 101.227 208.117C101.61 207.952 102.047 207.869 102.538 207.869C103.246 207.869 103.801 208.023 104.204 208.33C104.607 208.634 104.871 209.041 104.996 209.553Z" fill="#1A191E"/>
<rect width="12" height="12" rx="6" transform="matrix(0.999985 0.0054928 -0.0163752 0.999866 121.955 203.968)" fill="#F1DFDF"/>
<path d="M142.8 214.5L142.895 205.773H148.366L148.354 206.906H144.199L144.17 209.565H148.039L148.027 210.694H144.158L144.129 213.366H148.335L148.322 214.5H142.8ZM151.005 207.955L152.422 210.503L153.907 207.955H155.3L153.223 211.227L155.246 214.5H153.853L152.405 212.054L150.908 214.5H149.51L151.583 211.227L149.607 207.955H151.005ZM156.51 216.954L156.608 207.955H157.853L157.841 209.016H157.948C158.023 208.879 158.131 208.722 158.272 208.543C158.414 208.364 158.609 208.207 158.857 208.074C159.106 207.938 159.433 207.869 159.839 207.869C160.368 207.869 160.838 208.003 161.25 208.27C161.662 208.537 161.983 208.922 162.213 209.425C162.446 209.927 162.559 210.533 162.551 211.24C162.544 211.947 162.419 212.554 162.178 213.059C161.937 213.562 161.609 213.95 161.194 214.223C160.779 214.493 160.307 214.627 159.779 214.627C159.381 214.627 159.056 214.561 158.805 214.427C158.556 214.294 158.362 214.137 158.222 213.958C158.082 213.78 157.974 213.62 157.899 213.481H157.822L157.785 216.954H156.51ZM157.821 211.227C157.816 211.687 157.879 212.091 158.008 212.437C158.138 212.784 158.328 213.055 158.579 213.251C158.83 213.444 159.139 213.541 159.505 213.541C159.886 213.541 160.205 213.44 160.463 213.238C160.721 213.034 160.917 212.757 161.051 212.407C161.189 212.058 161.26 211.665 161.265 211.227C161.269 210.795 161.208 210.408 161.081 210.064C160.957 209.72 160.767 209.449 160.511 209.25C160.257 209.051 159.938 208.952 159.555 208.952C159.186 208.952 158.872 209.047 158.614 209.237C158.359 209.428 158.165 209.693 158.03 210.034C157.896 210.375 157.826 210.773 157.821 211.227ZM166.763 214.632C166.118 214.632 165.564 214.494 165.101 214.218C164.641 213.94 164.288 213.549 164.04 213.047C163.796 212.541 163.677 211.949 163.685 211.27C163.692 210.599 163.823 210.008 164.079 209.497C164.337 208.986 164.694 208.587 165.149 208.3C165.606 208.013 166.139 207.869 166.747 207.869C167.116 207.869 167.474 207.93 167.819 208.053C168.164 208.175 168.473 208.366 168.746 208.628C169.019 208.889 169.232 209.229 169.387 209.646C169.541 210.061 169.616 210.565 169.609 211.159L169.604 211.611H164.401L164.411 210.656H168.366C168.37 210.321 168.305 210.024 168.171 209.766C168.038 209.504 167.848 209.298 167.603 209.148C167.36 208.997 167.074 208.922 166.744 208.922C166.386 208.922 166.073 209.01 165.804 209.186C165.538 209.359 165.331 209.587 165.183 209.868C165.038 210.146 164.963 210.449 164.96 210.775L164.952 211.521C164.947 211.959 165.02 212.331 165.17 212.638C165.323 212.944 165.537 213.179 165.814 213.341C166.091 213.5 166.415 213.579 166.787 213.579C167.029 213.579 167.249 213.545 167.449 213.477C167.649 213.406 167.822 213.301 167.968 213.162C168.114 213.022 168.227 212.851 168.306 212.646L169.51 212.863C169.409 213.218 169.232 213.53 168.979 213.797C168.729 214.061 168.416 214.267 168.04 214.414C167.666 214.559 167.24 214.632 166.763 214.632ZM172.303 210.614L172.261 214.5H170.986L171.058 207.955H172.281L172.269 209.02H172.35C172.504 208.673 172.743 208.395 173.066 208.185C173.393 207.974 173.801 207.869 174.293 207.869C174.739 207.869 175.129 207.963 175.462 208.151C175.795 208.335 176.052 208.611 176.233 208.977C176.413 209.344 176.501 209.797 176.495 210.337L176.449 214.5H175.175L175.219 210.49C175.224 210.016 175.105 209.645 174.86 209.378C174.616 209.108 174.278 208.973 173.846 208.973C173.551 208.973 173.287 209.037 173.056 209.165C172.827 209.293 172.645 209.48 172.509 209.727C172.375 209.972 172.307 210.267 172.303 210.614ZM183.117 209.553L181.96 209.757C181.913 209.609 181.838 209.469 181.734 209.335C181.634 209.202 181.496 209.092 181.32 209.007C181.145 208.922 180.925 208.879 180.661 208.879C180.3 208.879 179.998 208.96 179.755 209.122C179.512 209.281 179.389 209.487 179.386 209.74C179.384 209.959 179.463 210.135 179.623 210.268C179.784 210.402 180.044 210.511 180.404 210.596L181.441 210.835C182.042 210.974 182.488 211.189 182.781 211.479C183.073 211.768 183.217 212.145 183.212 212.608C183.207 213 183.09 213.349 182.859 213.656C182.631 213.96 182.315 214.199 181.91 214.372C181.507 214.545 181.042 214.632 180.513 214.632C179.78 214.632 179.184 214.476 178.724 214.163C178.265 213.848 177.986 213.4 177.887 212.821L179.12 212.633C179.194 212.954 179.349 213.197 179.585 213.362C179.822 213.524 180.133 213.605 180.516 213.605C180.934 213.605 181.268 213.518 181.52 213.345C181.772 213.169 181.9 212.954 181.902 212.701C181.905 212.497 181.83 212.325 181.678 212.186C181.529 212.047 181.298 211.942 180.987 211.871L179.881 211.628C179.272 211.488 178.823 211.267 178.533 210.963C178.247 210.659 178.106 210.274 178.111 209.808C178.116 209.422 178.227 209.084 178.446 208.794C178.665 208.504 178.966 208.278 179.348 208.117C179.731 207.952 180.168 207.869 180.659 207.869C181.367 207.869 181.922 208.023 182.325 208.33C182.728 208.634 182.992 209.041 183.117 209.553ZM187.411 214.632C186.767 214.632 186.213 214.494 185.75 214.218C185.29 213.94 184.936 213.549 184.689 213.047C184.444 212.541 184.326 211.949 184.333 211.27C184.34 210.599 184.472 210.008 184.727 209.497C184.986 208.986 185.342 208.587 185.797 208.3C186.255 208.013 186.788 207.869 187.396 207.869C187.765 207.869 188.122 207.93 188.467 208.053C188.813 208.175 189.122 208.366 189.394 208.628C189.667 208.889 189.881 209.229 190.035 209.646C190.19 210.061 190.264 210.565 190.257 211.159L190.253 211.611H185.049L185.06 210.656H189.014C189.018 210.321 188.953 210.024 188.82 209.766C188.686 209.504 188.496 209.298 188.251 209.148C188.008 208.997 187.722 208.922 187.393 208.922C187.035 208.922 186.721 209.01 186.452 209.186C186.186 209.359 185.979 209.587 185.831 209.868C185.686 210.146 185.612 210.449 185.608 210.775L185.6 211.521C185.595 211.959 185.668 212.331 185.818 212.638C185.971 212.944 186.186 213.179 186.462 213.341C186.739 213.5 187.064 213.579 187.436 213.579C187.677 213.579 187.898 213.545 188.097 213.477C188.297 213.406 188.47 213.301 188.616 213.162C188.763 213.022 188.875 212.851 188.954 212.646L190.158 212.863C190.058 213.218 189.881 213.53 189.628 213.797C189.378 214.061 189.065 214.267 188.688 214.414C188.314 214.559 187.889 214.632 187.411 214.632ZM196.594 209.553L195.436 209.757C195.39 209.609 195.315 209.469 195.211 209.335C195.11 209.202 194.972 209.092 194.797 209.007C194.622 208.922 194.402 208.879 194.138 208.879C193.777 208.879 193.475 208.96 193.232 209.122C192.989 209.281 192.866 209.487 192.863 209.74C192.86 209.959 192.939 210.135 193.1 210.268C193.26 210.402 193.521 210.511 193.88 210.596L194.918 210.835C195.518 210.974 195.965 211.189 196.257 211.479C196.55 211.768 196.693 212.145 196.688 212.608C196.684 213 196.566 213.349 196.336 213.656C196.108 213.96 195.792 214.199 195.386 214.372C194.984 214.545 194.518 214.632 193.99 214.632C193.257 214.632 192.661 214.476 192.201 214.163C191.741 213.848 191.462 213.4 191.363 212.821L192.597 212.633C192.67 212.954 192.825 213.197 193.062 213.362C193.299 213.524 193.609 213.605 193.993 213.605C194.41 213.605 194.745 213.518 194.997 213.345C195.249 213.169 195.376 212.954 195.379 212.701C195.381 212.497 195.306 212.325 195.154 212.186C195.005 212.047 194.775 211.942 194.463 211.871L193.358 211.628C192.749 211.488 192.299 211.267 192.01 210.963C191.724 210.659 191.583 210.274 191.588 209.808C191.592 209.422 191.704 209.084 191.923 208.794C192.142 208.504 192.443 208.278 192.825 208.117C193.208 207.952 193.644 207.869 194.136 207.869C194.843 207.869 195.399 208.023 195.801 208.33C196.204 208.634 196.468 209.041 196.594 209.553Z" fill="#1A191E"/>
<rect x="284.153" y="197.5" width="61" height="25" rx="3.5" stroke="#E8E8E8"/>
<path d="M291.939 205.273H293.435L295.714 209.24H295.808L298.088 205.273H299.584L296.418 210.574V214H295.105V210.574L291.939 205.273ZM302.468 214.132C301.823 214.132 301.267 213.994 300.801 213.719C300.338 213.44 299.98 213.05 299.728 212.547C299.478 212.041 299.353 211.449 299.353 210.77C299.353 210.099 299.478 209.509 299.728 208.997C299.98 208.486 300.333 208.087 300.784 207.8C301.239 207.513 301.77 207.369 302.378 207.369C302.747 207.369 303.105 207.43 303.452 207.553C303.799 207.675 304.11 207.866 304.385 208.128C304.661 208.389 304.878 208.729 305.037 209.146C305.196 209.561 305.276 210.065 305.276 210.659V211.111H300.073V210.156H304.027C304.027 209.821 303.959 209.524 303.823 209.266C303.686 209.004 303.495 208.798 303.247 208.648C303.003 208.497 302.716 208.422 302.387 208.422C302.029 208.422 301.716 208.51 301.449 208.686C301.185 208.859 300.98 209.087 300.835 209.368C300.693 209.646 300.622 209.949 300.622 210.276V211.021C300.622 211.459 300.699 211.831 300.853 212.138C301.009 212.445 301.226 212.679 301.505 212.841C301.783 213 302.108 213.08 302.48 213.08C302.722 213.08 302.942 213.045 303.141 212.977C303.34 212.906 303.512 212.801 303.657 212.662C303.801 212.523 303.912 212.351 303.989 212.146L305.195 212.364C305.098 212.719 304.925 213.03 304.675 213.297C304.428 213.561 304.117 213.767 303.742 213.915C303.37 214.06 302.945 214.132 302.468 214.132ZM308.594 214.145C308.18 214.145 307.805 214.068 307.469 213.915C307.134 213.759 306.869 213.533 306.672 213.237C306.479 212.942 306.383 212.58 306.383 212.151C306.383 211.781 306.454 211.477 306.596 211.239C306.738 211 306.93 210.811 307.171 210.672C307.413 210.533 307.682 210.428 307.981 210.357C308.279 210.286 308.583 210.232 308.893 210.195C309.285 210.149 309.603 210.112 309.847 210.084C310.092 210.053 310.269 210.003 310.38 209.935C310.491 209.866 310.546 209.756 310.546 209.602V209.572C310.546 209.2 310.441 208.912 310.231 208.707C310.023 208.503 309.714 208.401 309.302 208.401C308.873 208.401 308.535 208.496 308.288 208.686C308.043 208.874 307.874 209.082 307.78 209.312L306.583 209.04C306.725 208.642 306.932 208.321 307.205 208.077C307.481 207.83 307.797 207.651 308.155 207.54C308.513 207.426 308.89 207.369 309.285 207.369C309.546 207.369 309.823 207.401 310.116 207.463C310.411 207.523 310.687 207.634 310.942 207.795C311.201 207.957 311.413 208.189 311.577 208.49C311.742 208.788 311.824 209.176 311.824 209.653V214H310.58V213.105H310.529C310.447 213.27 310.323 213.432 310.158 213.591C309.994 213.75 309.782 213.882 309.523 213.987C309.265 214.092 308.955 214.145 308.594 214.145ZM308.871 213.122C309.224 213.122 309.525 213.053 309.775 212.913C310.028 212.774 310.219 212.592 310.35 212.368C310.484 212.141 310.55 211.898 310.55 211.639V210.795C310.505 210.841 310.417 210.884 310.286 210.923C310.158 210.96 310.012 210.993 309.847 211.021C309.682 211.047 309.522 211.071 309.366 211.094C309.209 211.114 309.079 211.131 308.974 211.145C308.726 211.176 308.501 211.229 308.296 211.303C308.094 211.376 307.932 211.483 307.81 211.622C307.691 211.759 307.631 211.94 307.631 212.168C307.631 212.483 307.748 212.722 307.981 212.884C308.214 213.043 308.511 213.122 308.871 213.122ZM313.522 214V207.455H314.753V208.494H314.821C314.941 208.142 315.151 207.865 315.452 207.663C315.756 207.459 316.1 207.357 316.483 207.357C316.563 207.357 316.657 207.359 316.764 207.365C316.875 207.371 316.962 207.378 317.024 207.386V208.605C316.973 208.591 316.882 208.575 316.752 208.558C316.621 208.538 316.49 208.528 316.36 208.528C316.059 208.528 315.79 208.592 315.554 208.72C315.321 208.845 315.137 209.02 315 209.244C314.864 209.466 314.796 209.719 314.796 210.003V214H313.522Z" fill="#1A191E"/>
<path d="M329.653 212L326.824 209.171L327.768 208.229L329.653 210.115L331.538 208.229L332.482 209.171L329.653 212Z" fill="#1A191E"/>
</g>
<rect x="5.65332" y="5" width="370" height="790" rx="45" stroke="#1A191E" stroke-width="10"/>
<defs>
<clipPath id="clip0_738_3938">
<rect x="0.65332" width="380" height="800" rx="50" fill="white"/>
</clipPath>
</defs>
</svg>
