<svg width="358" height="39" viewBox="0 0 358 39" fill="none" xmlns="http://www.w3.org/2000/svg">
<rect width="357.333" height="39" rx="6" fill="#5BB5A2"/>
<path d="M143.292 25.18C142.302 25.18 141.437 24.955 140.697 24.505C139.957 24.055 139.382 23.425 138.972 22.615C138.562 21.805 138.357 20.86 138.357 19.78C138.357 18.71 138.567 17.765 138.987 16.945C139.407 16.125 140.002 15.485 140.772 15.025C141.552 14.555 142.472 14.32 143.532 14.32C144.732 14.32 145.732 14.61 146.532 15.19C147.332 15.77 147.852 16.57 148.092 17.59H146.292C146.132 17.03 145.817 16.59 145.347 16.27C144.877 15.95 144.272 15.79 143.532 15.79C142.432 15.79 141.567 16.145 140.937 16.855C140.307 17.565 139.992 18.545 139.992 19.795C139.992 21.045 140.302 22.02 140.922 22.72C141.542 23.42 142.367 23.77 143.397 23.77C144.437 23.77 145.217 23.475 145.737 22.885C146.267 22.295 146.577 21.51 146.667 20.53H143.817V19.3H148.272V25H146.817L146.682 23.455C146.332 24.005 145.892 24.43 145.362 24.73C144.832 25.03 144.142 25.18 143.292 25.18ZM153.622 25.18C152.892 25.18 152.242 25.02 151.672 24.7C151.112 24.37 150.672 23.915 150.352 23.335C150.032 22.755 149.872 22.08 149.872 21.31C149.872 20.53 150.027 19.845 150.337 19.255C150.657 18.665 151.097 18.205 151.657 17.875C152.227 17.545 152.887 17.38 153.637 17.38C154.367 17.38 155.002 17.545 155.542 17.875C156.082 18.195 156.502 18.625 156.802 19.165C157.102 19.705 157.252 20.3 157.252 20.95C157.252 21.05 157.247 21.16 157.237 21.28C157.237 21.39 157.232 21.515 157.222 21.655H151.432C151.482 22.375 151.717 22.925 152.137 23.305C152.567 23.675 153.062 23.86 153.622 23.86C154.072 23.86 154.447 23.76 154.747 23.56C155.057 23.35 155.287 23.07 155.437 22.72H157.027C156.827 23.42 156.427 24.005 155.827 24.475C155.237 24.945 154.502 25.18 153.622 25.18ZM153.622 18.685C153.092 18.685 152.622 18.845 152.212 19.165C151.802 19.475 151.552 19.945 151.462 20.575H155.662C155.632 19.995 155.427 19.535 155.047 19.195C154.667 18.855 154.192 18.685 153.622 18.685ZM161.831 25C161.101 25 160.521 24.825 160.091 24.475C159.661 24.115 159.446 23.48 159.446 22.57V18.895H158.171V17.56H159.446L159.641 15.67H161.036V17.56H163.136V18.895H161.036V22.57C161.036 22.98 161.121 23.265 161.291 23.425C161.471 23.575 161.776 23.65 162.206 23.65H163.061V25H161.831ZM171.525 25.18C170.585 25.18 169.81 24.95 169.2 24.49C168.59 24.03 168.24 23.42 168.15 22.66H169.755C169.835 23 170.025 23.295 170.325 23.545C170.625 23.785 171.02 23.905 171.51 23.905C171.99 23.905 172.34 23.805 172.56 23.605C172.78 23.405 172.89 23.175 172.89 22.915C172.89 22.535 172.735 22.28 172.425 22.15C172.125 22.01 171.705 21.885 171.165 21.775C170.745 21.685 170.325 21.565 169.905 21.415C169.495 21.265 169.15 21.055 168.87 20.785C168.6 20.505 168.465 20.13 168.465 19.66C168.465 19.01 168.715 18.47 169.215 18.04C169.715 17.6 170.415 17.38 171.315 17.38C172.145 17.38 172.815 17.58 173.325 17.98C173.845 18.38 174.15 18.945 174.24 19.675H172.71C172.66 19.355 172.51 19.105 172.26 18.925C172.02 18.745 171.695 18.655 171.285 18.655C170.885 18.655 170.575 18.74 170.355 18.91C170.135 19.07 170.025 19.28 170.025 19.54C170.025 19.8 170.175 20.005 170.475 20.155C170.785 20.305 171.19 20.44 171.69 20.56C172.19 20.67 172.65 20.8 173.07 20.95C173.5 21.09 173.845 21.3 174.105 21.58C174.365 21.86 174.495 22.27 174.495 22.81C174.505 23.49 174.24 24.055 173.7 24.505C173.17 24.955 172.445 25.18 171.525 25.18ZM179.072 25C178.342 25 177.762 24.825 177.332 24.475C176.902 24.115 176.687 23.48 176.687 22.57V18.895H175.412V17.56H176.687L176.882 15.67H178.277V17.56H180.377V18.895H178.277V22.57C178.277 22.98 178.362 23.265 178.532 23.425C178.712 23.575 179.017 23.65 179.447 23.65H180.302V25H179.072ZM184.537 25.18C183.907 25.18 183.387 25.075 182.977 24.865C182.567 24.655 182.262 24.38 182.062 24.04C181.862 23.69 181.762 23.31 181.762 22.9C181.762 22.18 182.042 21.61 182.602 21.19C183.162 20.77 183.962 20.56 185.002 20.56H186.952V20.425C186.952 19.845 186.792 19.41 186.472 19.12C186.162 18.83 185.757 18.685 185.257 18.685C184.817 18.685 184.432 18.795 184.102 19.015C183.782 19.225 183.587 19.54 183.517 19.96H181.927C181.977 19.42 182.157 18.96 182.467 18.58C182.787 18.19 183.187 17.895 183.667 17.695C184.157 17.485 184.692 17.38 185.272 17.38C186.312 17.38 187.117 17.655 187.687 18.205C188.257 18.745 188.542 19.485 188.542 20.425V25H187.162L187.027 23.725C186.817 24.135 186.512 24.48 186.112 24.76C185.712 25.04 185.187 25.18 184.537 25.18ZM184.852 23.89C185.282 23.89 185.642 23.79 185.932 23.59C186.232 23.38 186.462 23.105 186.622 22.765C186.792 22.425 186.897 22.05 186.937 21.64H185.167C184.537 21.64 184.087 21.75 183.817 21.97C183.557 22.19 183.427 22.465 183.427 22.795C183.427 23.135 183.552 23.405 183.802 23.605C184.062 23.795 184.412 23.89 184.852 23.89ZM190.396 25V17.56H191.821L191.956 18.97C192.216 18.48 192.576 18.095 193.036 17.815C193.506 17.525 194.071 17.38 194.731 17.38V19.045H194.296C193.856 19.045 193.461 19.12 193.111 19.27C192.771 19.41 192.496 19.655 192.286 20.005C192.086 20.345 191.986 20.82 191.986 21.43V25H190.396ZM199.214 25C198.484 25 197.904 24.825 197.474 24.475C197.044 24.115 196.829 23.48 196.829 22.57V18.895H195.554V17.56H196.829L197.024 15.67H198.419V17.56H200.519V18.895H198.419V22.57C198.419 22.98 198.504 23.265 198.674 23.425C198.854 23.575 199.159 23.65 199.589 23.65H200.444V25H199.214ZM205.448 25.18C204.718 25.18 204.068 25.02 203.498 24.7C202.938 24.37 202.498 23.915 202.178 23.335C201.858 22.755 201.698 22.08 201.698 21.31C201.698 20.53 201.853 19.845 202.163 19.255C202.483 18.665 202.923 18.205 203.483 17.875C204.053 17.545 204.713 17.38 205.463 17.38C206.193 17.38 206.828 17.545 207.368 17.875C207.908 18.195 208.328 18.625 208.628 19.165C208.928 19.705 209.078 20.3 209.078 20.95C209.078 21.05 209.073 21.16 209.063 21.28C209.063 21.39 209.058 21.515 209.048 21.655H203.258C203.308 22.375 203.543 22.925 203.963 23.305C204.393 23.675 204.888 23.86 205.448 23.86C205.898 23.86 206.273 23.76 206.573 23.56C206.883 23.35 207.113 23.07 207.263 22.72H208.853C208.653 23.42 208.253 24.005 207.653 24.475C207.063 24.945 206.328 25.18 205.448 25.18ZM205.448 18.685C204.918 18.685 204.448 18.845 204.038 19.165C203.628 19.475 203.378 19.945 203.288 20.575H207.488C207.458 19.995 207.253 19.535 206.873 19.195C206.493 18.855 206.018 18.685 205.448 18.685ZM214.118 25.18C213.398 25.18 212.763 25.01 212.213 24.67C211.663 24.33 211.233 23.865 210.923 23.275C210.613 22.685 210.458 22.015 210.458 21.265C210.458 20.515 210.613 19.85 210.923 19.27C211.233 18.68 211.663 18.22 212.213 17.89C212.773 17.55 213.413 17.38 214.133 17.38C214.723 17.38 215.238 17.495 215.678 17.725C216.128 17.955 216.478 18.28 216.728 18.7V14.2H218.318V25H216.893L216.728 23.845C216.488 24.195 216.158 24.505 215.738 24.775C215.318 25.045 214.778 25.18 214.118 25.18ZM214.403 23.8C215.083 23.8 215.638 23.565 216.068 23.095C216.508 22.625 216.728 22.02 216.728 21.28C216.728 20.53 216.508 19.925 216.068 19.465C215.638 18.995 215.083 18.76 214.403 18.76C213.723 18.76 213.163 18.995 212.723 19.465C212.283 19.925 212.063 20.53 212.063 21.28C212.063 21.77 212.163 22.205 212.363 22.585C212.563 22.965 212.838 23.265 213.188 23.485C213.548 23.695 213.953 23.8 214.403 23.8Z" fill="white"/>
</svg>
